<?xml version="1.0" encoding="utf-8"?>
<!-- Generator: Adobe Illustrator 27.8.1, SVG Export Plug-In . SVG Version: 6.00 Build 0)  -->
<svg version="1.1" id="Layer_1" xmlns="http://www.w3.org/2000/svg" xmlns:xlink="http://www.w3.org/1999/xlink" x="0px" y="0px"
	 viewBox="0 0 52 35.8" style="enable-background:new 0 0 52 35.8;" xml:space="preserve">
<style type="text/css">
	.st0{fill:#CFCFCF;}
	.st1{fill:#FFFFFF;}
	.st2{fill:#898989;}
</style>
<g id="Layer_2_00000012442544698115389220000015475033601706486154_">
	<path class="st0" d="M32.7,8.6c1.9,0.5,3,2.4,3,2.4s-0.3-4.6-0.8-6.8c6.4,5.1,1.3,12.3,1.3,12.3C35.4,12,33.4,10.1,32.7,8.6z"/>
	<path class="st0" d="M20.7,13.3c1.2-0.7,2.3-1.3,6.9-1.2c-4.1-3.7-6.5-4.7-10-5.9c13-1.4,16.1,10.2,16.1,10.2S23.2,14,20.7,13.3z"
		/>
	<path class="st0" d="M42.1,32.5c1.3-1,2.5-3.3,3-4.6c-2.1,1-2,0.9-2.7,0.8c2.2-0.5,4.2-4.4,4.2-4.4C48.2,29.5,43.9,31.8,42.1,32.5z
		"/>
	<path class="st0" d="M14.6,23.7c-3.8,2.4-7,3.1-9.7,3.7c1.4-3.2,5.1-3.8,5.1-3.8s-4.8-1.4-7.6-2.3c5.4-0.8,11.1,1.6,11.9,2
		c0.1,0,0.6,0.3,0.6,0.3L14.6,23.7z"/>
	<path class="st0" d="M31.8,30.7c-4.7,0.8-9-1.6-9.6-5.3c-0.6-3.7,2.5-7,7.2-7.8c4.7-0.7,9.2,1.4,9.8,5.1
		C39.8,26.4,36.5,30,31.8,30.7z"/>
</g>
<ellipse class="st1" cx="29.4" cy="23.4" rx="4.2" ry="4"/>
<g>
	<g>
		<g>
			<g>
				<g>
					<path d="M33.1,21.2c-1.2-1.8-4-2.4-6-1.2c-1.9,1.2-2.5,4-1.1,5.7c0.3-1.4,1.9-2.3,3.3-2s2.4,1.7,2.4,3.2
						C33.7,25.7,34.4,23,33.1,21.2z M31.6,23.1c-0.6,0.4-1.4,0.2-1.7-0.4c-0.4-0.6-0.2-1.3,0.4-1.7s1.4-0.2,1.7,0.4
						C32.4,22,32.2,22.8,31.6,23.1z"/>
				</g>
			</g>
			<g>
				<path class="st2" d="M39.4,22.8c0.2,1.6-0.5,3.4-1.7,4.5c0.5-0.7,0.8-1.4,1-2.1c0.2-0.7,0.3-1.5,0.2-2.3c-0.2-1.5-1-2.8-2.2-3.9
					C38.1,19.6,39.2,21.2,39.4,22.8z"/>
			</g>
			<g>
				<path class="st2" d="M23.9,28.9c-1-1-1.7-2.3-1.8-3.6c0.5,1.2,1.2,2.4,2.2,3.3c0.9,0.9,2,1.7,3.3,2.3
					C26.2,30.6,24.9,29.9,23.9,28.9z"/>
			</g>
			<g>
				<g>
					<path class="st2" d="M38,19.1c-2.9-0.7-6.1-0.9-9.1-0.5c-3,0.5-5.9,1.6-8.6,3.2s-4.9,3.7-6.8,6.1c1.5-2.7,3.7-5,6.4-6.8
						c2.6-1.8,5.6-3,8.8-3.5c3.1-0.5,6.4-0.2,9.4,0.7s5.8,2.5,8,4.5C43.8,21.1,40.9,19.8,38,19.1z"/>
				</g>
				<g>
					<path class="st2" d="M32.2,16.1c-0.5-0.1-1.1-0.3-1.7-0.4c-1.1-0.2-2.2-0.5-3.4-0.7c-2.3-0.4-4.6-0.7-6.8-1.2
						c-0.1,0-0.2-0.1-0.2-0.2c-0.1-0.2-0.1-0.4,0.1-0.5l0,0c1.1-0.7,2.3-1.1,3.6-1.2c1.2-0.2,2.5-0.2,3.8-0.1l-0.4,0.8
						c-1.5-1.4-3-2.6-4.9-3.6c-1.8-1-3.7-1.7-5.7-2.3l0,0c-0.1-0.1-0.2-0.2-0.3-0.3c-0.1-0.3,0.1-0.5,0.4-0.6c1.9-0.4,3.8-0.4,5.7,0
						c1.8,0.4,3.5,1.2,5,2.3c1.5,1,2.8,2.3,3.9,3.7s2,3,2.5,4.7C33.3,16.3,32.7,16.2,32.2,16.1z M31.2,12c-1.2-1.3-2.5-2.5-4-3.4
						s-3.1-1.6-4.9-2c-1.7-0.4-3.5-0.3-5.3,0.1V5.8c2,0.7,3.9,1.4,5.8,2.4c1.8,1,3.6,2.3,5,3.7l0,0c0.1,0.1,0.2,0.2,0.1,0.4
						c0,0.3-0.3,0.5-0.5,0.4c-1.2-0.2-2.4-0.2-3.5,0c-1.2,0.1-2.3,0.5-3.3,1L20.5,13c2.2,0.6,4.5,0.9,6.7,1.5
						c1.1,0.2,2.2,0.5,3.3,0.9c0.5,0.2,1.1,0.4,1.6,0.5c0.6,0.2,0.9,0.3,1.5,0.5C33.2,14.6,32.2,13.3,31.2,12z"/>
				</g>
				<g>
					<path class="st2" d="M35.9,15.6c-0.1-0.4-0.2-0.7-0.4-1.1c-0.3-0.7-0.6-1.4-0.9-2.1C33.9,11,33,9.8,32,8.7
						c-0.1-0.1-0.1-0.2-0.1-0.3c0-0.2,0.2-0.3,0.5-0.3l0,0c0.8,0.2,1.5,0.5,2.1,1c0.6,0.5,1.1,1,1.6,1.6l-0.8,0.2
						c0.1-1.4-0.1-2.8-0.5-4.1s-1-2.6-1.6-3.9c0-0.1-0.1-0.3,0-0.4c0.1-0.2,0.4-0.3,0.7-0.2c1.2,0.7,2.3,1.7,3,2.8s1.2,2.5,1.4,3.8
						c0.2,1.3,0.1,2.7-0.3,4c-0.2,0.6-0.4,1.3-0.7,1.9c-0.2,0.3-0.3,0.6-0.5,0.9s-0.4,0.5-0.6,0.8C36.1,16.3,36,15.8,35.9,15.6z
						 M36.7,15.7c0.1-0.3,0.3-0.6,0.4-0.9c0.2-0.6,0.4-1.2,0.5-1.9c0.2-1.3,0.3-2.6,0-3.8c-0.2-1.3-0.7-2.4-1.4-3.5
						c-0.7-1-1.7-1.9-2.8-2.5l0.7-0.6c0.7,1.3,1.3,2.6,1.7,4c0.4,1.4,0.6,2.9,0.5,4.4l0,0c0,0.2-0.1,0.3-0.2,0.3
						c-0.2,0.1-0.5,0.1-0.6-0.1C35,10.5,34.6,10,34,9.6c-0.6-0.4-1.2-0.7-1.8-0.9l0.4-0.6c1,1.2,1.8,2.5,2.4,4
						c0.3,0.7,0.5,1.4,0.7,2.2c0.1,0.4,0.2,0.7,0.3,1.1c0.1,0.4,0.1,0.7,0.2,1.1C36.4,16.3,36.5,16,36.7,15.7z"/>
				</g>
				<g>
					<path class="st2" d="M46.6,24.3c0.1,0.3,0.1,0.4,0.2,0.6c0,0.2,0.1,0.4,0.1,0.7c0.1,0.4,0.1,0.7,0.1,1.3
						c-0.1,0.9-0.3,1.8-0.7,2.6c-0.4,0.8-1,1.6-1.7,2.2S43,32.8,42.1,33c-0.2,0-0.4,0-0.4-0.2c0-0.1,0-0.2,0.1-0.3
						c0.7-0.7,1.3-1.4,1.9-2.2c0.6-0.8,0.9-1.6,1.2-2.5l0.5,0.3c-0.4,0.3-0.9,0.6-1.4,0.7c-0.5,0.2-1,0.3-1.6,0.2l0,0
						c-0.2-0.1-0.2-0.1-0.2-0.2c0-0.1,0.1-0.2,0.1-0.2c0.7-0.7,1.7-1.2,2.5-1.9c0.4-0.3,0.7-0.8,1-1.2c0.2-0.2,0.3-0.4,0.4-0.6
						C46.4,24.7,46.6,24.4,46.6,24.3z M46.6,24.3c-0.1,0.3-0.2,0.5-0.3,0.7c-0.1,0.2-0.3,0.5-0.4,0.7c-0.3,0.4-0.5,0.8-0.9,1.3
						c-0.8,0.7-1.3,1.1-2.2,1.7l-0.3-0.1c0.5,0,0.9-0.1,1.4-0.3c0.4-0.2,0.8-0.3,1.3-0.7c0.1-0.1,0.4-0.1,0.4,0c0,0.1,0,0.1,0,0.2
						l0,0c-0.2,0.9-0.7,1.9-1.2,2.7c-0.6,0.8-1.2,1.6-2,2.2l-0.1-0.4c0.8-0.2,1.4-0.7,2.1-1.2s1.3-1.2,1.7-1.9
						c0.4-0.7,0.7-1.6,0.8-2.4c0.1-0.4,0.1-0.9,0-1.3c0-0.2,0-0.4-0.1-0.6C46.7,24.6,46.6,24.5,46.6,24.3z"/>
				</g>
				<g>
					<path class="st2" d="M38.4,29.6c-2.4,1.2-5.1,1.9-7.8,1.9s-5.3-0.7-7.7-1.8s-4.5-2.7-6-4.7c1.9,1.7,4,3.1,6.4,4.1
						c2.3,1,4.9,1.5,7.4,1.5s5.1-0.6,7.4-1.6c2.4-1,4.5-2.5,6.4-4.3C42.9,26.8,40.8,28.5,38.4,29.6z"/>
				</g>
				<g>
					<path class="st2" d="M13.7,24.3c-0.5,0.3-0.8,0.4-1.2,0.6c-0.8,0.4-1.6,0.9-2.4,1.2S8.5,26.7,7.6,27S5.8,27.4,5,27.6
						c-0.1,0-0.2,0-0.3,0c-0.2,0-0.3-0.3-0.2-0.5l0,0c0.5-1,1.4-1.9,2.3-2.6s1.9-1,3.1-1.3l0.1,0.7c-1.3-0.4-2.6-0.7-3.9-1.1
						c-1.3-0.3-2.6-0.7-3.9-1.1l0,0C2,21.6,2,21.5,1.9,21.3c-0.1-0.2,0.2-0.5,0.4-0.5c2-0.3,4.4,0,6.4,0.4c1,0.2,2.1,0.5,3.1,0.9
						s2.2,1,3.1,1.5C14.5,23.8,14.1,24.1,13.7,24.3z M11.7,22.5c-1.1-0.3-2.1-0.3-3.1-0.4c-2-0.3-3.1-0.4-5.1-0.2l-1-0.8
						c1.3,0.3,2.6,0.7,4,1c1.3,0.4,2.6,0.7,3.9,1.1l0,0c0.2,0.1,0.3,0.2,0.4,0.4c0.1,0.2-0.3,0.5-0.5,0.5c-1,0.2-2,0.6-2.9,1.2
						c-0.8,0.6-1.5,1.4-2.1,2.3L4.9,27c1.8-0.3,3.4-0.6,5.1-1.2c0.8-0.3,1.6-0.6,2.4-1c0.4-0.2,0.8-0.5,1.2-0.7
						c0.4-0.2,0.6-0.3,1.1-0.6C13.7,23,12.7,22.8,11.7,22.5z"/>
				</g>
			</g>
		</g>
	</g>
</g>
<circle class="st1" cx="28.9" cy="26.6" r="3"/>
</svg>
