<?xml version="1.0" encoding="utf-8"?>
<!-- Generator: Adobe Illustrator 27.8.1, SVG Export Plug-In . SVG Version: 6.00 Build 0)  -->
<svg version="1.1" id="Capa_1" xmlns="http://www.w3.org/2000/svg" xmlns:xlink="http://www.w3.org/1999/xlink" x="0px" y="0px"
	 viewBox="0 0 32.4 32.4" style="enable-background:new 0 0 32.4 32.4;" xml:space="preserve">
<style type="text/css">
	.st0{fill:#333333;}
</style>
<g>
	<path class="st0" d="M17.8,5.6c0,7.3,0,14.6,0,21.9c-0.7-0.1-1.3-0.2-1.9-0.3c-3-0.5-6-1-9-1.5c-0.6-0.1-1.2-0.2-1.9-0.3
		c-0.3,0-0.4-0.2-0.4-0.5c0-5.6,0-11.2,0-16.8c0-0.3,0.1-0.4,0.4-0.5c2.6-0.4,5.3-0.8,7.9-1.3c1.6-0.3,3.1-0.5,4.7-0.8
		C17.7,5.6,17.7,5.6,17.8,5.6z M7.8,16.7c0,1.1,0.2,1.8,0.6,2.6c1.2,2.1,3.9,2.2,5.2,0.2c1.1-1.9,1.1-3.9,0-5.8
		c-1.1-2-3.7-1.7-4.9-0.2C8,14.4,7.7,15.5,7.8,16.7z"/>
	<path class="st0" d="M18.6,16.1c0.7,0.5,1.2,1,1.8,1.5c0.1,0,0.1,0.1,0.2,0.1c0.4,0.4,0.6,0.4,1,0c1-0.7,1.9-1.4,2.9-2.2
		c1-0.7,2-1.5,3-2.2c0.1-0.1,0.2-0.1,0.3-0.2c0,0.2,0,0.3,0,0.4c0,2.9,0,5.8,0,8.8c0,0.5,0,0.6-0.6,0.6c-2.7,0-5.5,0-8.2,0
		c-0.4,0-0.5-0.1-0.5-0.5c0-2,0-3.9,0-5.9C18.5,16.4,18.6,16.3,18.6,16.1z"/>
	<path class="st0" d="M21.1,16.8c-0.8-0.7-1.6-1.3-2.4-1.9c-0.1-0.1-0.2-0.2-0.2-0.4c0-1.2,0-2.3,0-3.5c0-0.2,0.1-0.3,0.3-0.3
		c2.8,0,5.6,0,8.4,0c0.3,0,0.4,0.1,0.5,0.5c0.1,0.5-0.1,0.9-0.6,1.2c-1.9,1.3-3.7,2.7-5.5,4.1C21.5,16.5,21.3,16.6,21.1,16.8z"/>
	<path class="st0" d="M12.6,16.6c0,0.6-0.2,1.1-0.3,1.6c-0.2,0.5-0.6,0.9-1.2,1c-0.7,0-1.1-0.3-1.4-0.8c-0.5-1.2-0.5-2.4,0-3.5
		c0.3-0.6,0.7-0.9,1.4-0.8c0.6,0,1,0.4,1.2,1C12.4,15.4,12.6,16,12.6,16.6z"/>
</g>
</svg>
