<?xml version="1.0" encoding="utf-8"?>
<!-- Generator: Adobe Illustrator 27.7.0, SVG Export Plug-In . SVG Version: 6.00 Build 0)  -->
<svg version="1.1" id="Capa_1" xmlns="http://www.w3.org/2000/svg" xmlns:xlink="http://www.w3.org/1999/xlink" x="0px" y="0px"
	 viewBox="0 0 261.5 41.6" style="enable-background:new 0 0 261.5 41.6;" xml:space="preserve">
<style type="text/css">
	.st0{fill:#CFCFCF;}
	.st1{fill:#FFFFFF;}
	.st2{fill:#898989;}
</style>
<g>
	<path class="st0" d="M249.6,18.1c0,0,5.1-7.2-1.3-12.3c0.5,2.2,0.8,6.8,0.8,6.8s-1.1-1.9-3-2.4C246.8,11.7,248.8,13.6,249.6,18.1z"
		/>
	<path class="st0" d="M247.1,18c0,0-3.1-11.6-16.1-10.2c3.5,1.2,5.9,2.2,10,5.9c-4.6-0.1-5.7,0.5-6.9,1.2
		C236.6,15.6,247.1,18,247.1,18z"/>
	<path class="st0" d="M228.3,25.2c0,0-0.5-0.3-0.6-0.3c-0.8-0.4-6.5-2.8-11.9-2c2.8,0.9,7.6,2.3,7.6,2.3s-3.7,0.6-5.1,3.8
		c2.7-0.6,5.9-1.3,9.7-3.7L228.3,25.2z"/>
	<ellipse transform="matrix(0.9896 -0.144 0.144 0.9896 -1.1596 35.4031)" class="st0" cx="244" cy="25.7" rx="8.6" ry="6.7"/>
	<ellipse class="st1" cx="242.8" cy="25" rx="4.2" ry="4"/>
	<g>
		<g>
			<g>
				<g>
					<g>
						<path d="M246.5,22.8c-1.2-1.8-4-2.4-6-1.2c-1.9,1.2-2.5,4-1.1,5.7c0.3-1.4,1.9-2.3,3.3-2c1.4,0.3,2.4,1.7,2.4,3.2
							C247.1,27.3,247.8,24.6,246.5,22.8z M245,24.7c-0.6,0.4-1.4,0.2-1.7-0.4c-0.4-0.6-0.2-1.3,0.4-1.7s1.4-0.2,1.7,0.4
							C245.8,23.6,245.6,24.4,245,24.7z"/>
					</g>
				</g>
				<g>
					<path class="st2" d="M252.8,24.5c0.2,1.6-0.5,3.4-1.7,4.5c0.5-0.7,0.8-1.4,1-2.1s0.3-1.5,0.2-2.3c-0.2-1.5-1-2.9-2.2-3.9
						C251.5,21.2,252.6,22.8,252.8,24.5z"/>
				</g>
				<g>
					<path class="st2" d="M237.3,30.5c-1-1-1.7-2.3-1.8-3.6c0.5,1.2,1.2,2.4,2.2,3.3c0.9,0.9,2,1.7,3.3,2.3
						C239.6,32.2,238.3,31.5,237.3,30.5z"/>
				</g>
				<g>
					<g>
						<path class="st2" d="M251.4,20.7c-2.9-0.7-6.1-0.9-9.1-0.5c-3,0.5-5.9,1.6-8.6,3.2c-2.7,1.6-4.9,3.7-6.8,6.1
							c1.5-2.7,3.7-5,6.4-6.8c2.6-1.8,5.6-3,8.8-3.5c3.1-0.5,6.4-0.2,9.4,0.7s5.8,2.5,8,4.5C257.2,22.7,254.3,21.4,251.4,20.7z"/>
					</g>
					<g>
						<path class="st2" d="M245.6,17.7c-0.5-0.2-1.1-0.3-1.7-0.4c-1.1-0.3-2.2-0.5-3.4-0.7c-2.3-0.4-4.6-0.7-6.8-1.2
							c-0.1,0-0.2-0.1-0.2-0.2c-0.1-0.2-0.1-0.4,0.1-0.5l0,0c1.1-0.7,2.3-1.1,3.6-1.2c1.2-0.2,2.5-0.2,3.8-0.1l-0.4,0.8
							c-1.5-1.4-3-2.6-4.9-3.6c-1.8-1-3.7-1.7-5.7-2.3l0,0c-0.1-0.1-0.2-0.2-0.3-0.3c-0.1-0.3,0.1-0.5,0.4-0.6
							c1.9-0.4,3.8-0.4,5.7,0c1.8,0.4,3.5,1.2,5,2.3c1.5,1,2.8,2.3,3.9,3.7c1.1,1.4,2,3,2.5,4.7C246.7,17.9,246.1,17.7,245.6,17.7z
							 M244.6,13.6c-1.2-1.3-2.5-2.5-4-3.4s-3.1-1.6-4.9-2c-1.7-0.4-3.5-0.3-5.3,0.1V7.4c2,0.7,3.9,1.4,5.8,2.4c1.8,1,3.6,2.3,5,3.7
							l0,0c0.1,0.1,0.2,0.2,0.1,0.4c0,0.3-0.3,0.5-0.5,0.4c-1.2-0.2-2.4-0.2-3.5,0c-1.2,0.1-2.3,0.5-3.3,1l-0.1-0.7
							c2.2,0.6,4.5,0.9,6.7,1.5c1.1,0.2,2.2,0.6,3.3,0.9c0.5,0.2,1.1,0.4,1.6,0.6c0.6,0.2,1,0.4,1.6,0.6
							C246.6,16.4,245.6,14.9,244.6,13.6z"/>
					</g>
					<g>
						<path class="st2" d="M249.3,17.2c-0.1-0.4-0.2-0.7-0.4-1.1c-0.3-0.7-0.6-1.4-0.9-2.1c-0.7-1.4-1.6-2.6-2.6-3.7
							c-0.1-0.1-0.1-0.2-0.1-0.3c0-0.2,0.2-0.3,0.5-0.3l0,0c0.8,0.2,1.5,0.5,2.1,1s1.1,1,1.6,1.6l-0.8,0.2c0.1-1.4-0.1-2.8-0.5-4.1
							s-1-2.6-1.6-3.9c0-0.1-0.1-0.3,0-0.4c0.1-0.2,0.4-0.3,0.7-0.2c1.2,0.7,2.3,1.7,3,2.8s1.2,2.5,1.4,3.8s0.1,2.7-0.3,4
							c-0.2,0.6-0.5,1.3-0.7,1.9c-0.2,0.3-0.3,0.6-0.5,0.9s-0.4,0.5-0.6,0.8C249.5,17.9,249.4,17.4,249.3,17.2z M250.1,17.3
							c0.1-0.3,0.3-0.6,0.4-0.9c0.2-0.6,0.4-1.2,0.5-1.9c0.2-1.3,0.3-2.6,0-3.8c-0.2-1.3-0.7-2.4-1.4-3.5c-0.7-1-1.7-1.9-2.8-2.5
							l0.7-0.6c0.7,1.3,1.3,2.6,1.7,4s0.6,2.9,0.5,4.4l0,0c0,0.2-0.1,0.3-0.2,0.3c-0.2,0.1-0.5,0.1-0.6-0.1
							c-0.5-0.6-0.9-1.1-1.5-1.5s-1.2-0.7-1.8-0.9l0.4-0.6c1,1.2,1.8,2.5,2.4,4c0.3,0.7,0.5,1.4,0.7,2.2c0.1,0.4,0.2,0.7,0.3,1.1
							s0.1,0.7,0.2,1.1C249.8,17.9,249.9,17.6,250.1,17.3z"/>
					</g>
					<g>
						<path class="st2" d="M260,25.9c0,0.2,0.1,0.4,0.2,0.6c0,0.2,0.1,0.4,0.1,0.7c0,0.4,0.1,0.9,0.1,1.3c0,0.9-0.3,1.8-0.7,2.6
							c-0.4,0.8-1,1.6-1.7,2.2s-1.6,1.1-2.5,1.3c-0.2,0-0.4,0-0.4-0.2c0-0.1,0-0.2,0.1-0.3c0.7-0.7,1.3-1.4,1.9-2.2s0.9-1.6,1.2-2.5
							l0.5,0.3c-0.4,0.3-0.9,0.6-1.4,0.7c-0.5,0.2-1,0.3-1.6,0.2l0,0c-0.2,0-0.3-0.1-0.2-0.2c0-0.1,0.1-0.2,0.1-0.2
							c0.9-0.5,1.7-1.2,2.5-1.9c0.4-0.3,0.7-0.8,1-1.2c0.2-0.2,0.3-0.4,0.5-0.6C259.6,26.4,259.8,26.1,260,25.9z M260,25.9
							c-0.1,0.3-0.2,0.5-0.4,0.7c-0.1,0.2-0.3,0.5-0.4,0.7c-0.3,0.4-0.6,0.8-0.9,1.3c-0.7,0.8-1.5,1.5-2.4,2.1l-0.1-0.5
							c0.5,0,0.9-0.1,1.4-0.3c0.4-0.2,0.8-0.4,1.3-0.7c0.1-0.1,0.4-0.1,0.4,0s0.1,0.1,0,0.2l0,0c-0.2,0.9-0.7,1.9-1.2,2.7
							c-0.6,0.8-1.2,1.6-2,2.2l-0.3-0.5c0.8-0.2,1.6-0.6,2.3-1.1s1.3-1.2,1.7-1.9c0.4-0.7,0.7-1.6,0.8-2.4c0.1-0.4,0.1-0.9,0-1.3
							c0-0.2,0-0.4-0.1-0.6C260,26.3,260,26.1,260,25.9z"/>
					</g>
					<g>
						<path class="st2" d="M251.8,31.2c-2.4,1.2-5.1,1.9-7.8,1.9s-5.3-0.7-7.7-1.8c-2.4-1.1-4.5-2.7-6-4.7c1.9,1.7,4,3.1,6.4,4.1
							c2.3,1,4.9,1.5,7.4,1.5s5.1-0.6,7.4-1.6c2.4-1,4.5-2.5,6.4-4.3C256.3,28.4,254.2,30.1,251.8,31.2z"/>
					</g>
					<g>
						<path class="st2" d="M227,25.8c-0.4,0.2-0.8,0.4-1.1,0.7c-0.8,0.4-1.6,0.9-2.4,1.2s-1.6,0.6-2.5,0.9s-1.8,0.4-2.6,0.6
							c-0.1,0-0.2,0-0.3,0c-0.2,0-0.3-0.3-0.2-0.5l0,0c0.5-1,1.4-1.9,2.3-2.6s2-1.2,3.2-1.5v0.9c-1.3-0.4-2.6-0.7-3.9-1.1
							c-1.3-0.3-2.6-0.7-3.9-1.1l0,0c-0.2,0-0.3-0.2-0.3-0.4c-0.1-0.2,0.2-0.4,0.4-0.5c2.1-0.2,4.4,0,6.4,0.4c1,0.2,2.1,0.5,3.1,0.9
							s1.9,0.8,2.8,1.3C227.8,25.4,227.4,25.7,227,25.8z"/>
					</g>
				</g>
			</g>
		</g>
		<g>
			<path class="st2" d="M-7.6,15.4l2.2-1.5l0,0l0,0l0,0L-7.6,15.4z"/>
			<path class="st2" d="M-0.2,11.7c1.8-0.5,3.7-0.9,5.5-1.1c0.1,0,0.1,0,0.1,0.1s0,0.1-0.1,0.1l0,0c-1.9,0.2-3.7,0.5-5.5,1
				C-0.2,11.8-0.2,11.8-0.2,11.7L-0.2,11.7z"/>
			<path class="st2" d="M11,10.4c1.9,0.1,3.8,0.3,5.6,0.6c0.1,0,0.2,0.1,0.2,0.3c0,0.1-0.1,0.2-0.3,0.2l0,0
				c-1.8-0.4-3.7-0.6-5.6-0.7c-0.1,0-0.2-0.1-0.2-0.2C10.8,10.5,10.9,10.4,11,10.4z"/>
			<path class="st2" d="M22.1,12.5c1.8,0.6,3.5,1.4,5.2,2.4c0.1,0.1,0.2,0.3,0.1,0.4s-0.3,0.2-0.4,0.1l0,0c-1.6-1-3.3-1.8-5-2.4
				c-0.1-0.1-0.2-0.2-0.2-0.3C21.8,12.5,22,12.4,22.1,12.5z"/>
			<path class="st2" d="M31.6,18.6c1.2,1.5,2,3.4,1.9,5.4c0,0.2-0.2,0.4-0.4,0.4s-0.4-0.2-0.4-0.4l0,0c0.1-1.8-0.6-3.5-1.8-5
				c-0.1-0.2-0.1-0.4,0.1-0.5C31.3,18.4,31.5,18.4,31.6,18.6z"/>
			<path class="st2" d="M31.2,29.3c-1.7,1.1-3.6,1.6-5.5,1.9c-0.2,0-0.4-0.1-0.5-0.3c0-0.2,0.1-0.4,0.3-0.5l0,0
				c1.8-0.3,3.6-0.7,5.1-1.7c0.2-0.1,0.4-0.1,0.5,0.1C31.4,28.9,31.4,29.2,31.2,29.3z"/>
			<path class="st2" d="M20.1,30c-1.6-1.2-2.7-3-2.9-5c0-0.2,0.1-0.4,0.4-0.5c0.2,0,0.4,0.1,0.5,0.4l0,0c0.2,1.7,1.1,3.4,2.5,4.5
				c0.2,0.1,0.2,0.4,0.1,0.6C20.6,30.1,20.3,30.1,20.1,30z"/>
			<path class="st2" d="M19.1,19.4c1.2-1.5,2.8-2.7,4.6-3.6c0.2-0.1,0.5,0,0.6,0.2c0.1,0.2,0,0.5-0.2,0.6l0,0
				c-1.6,0.8-3.1,1.9-4.3,3.3c-0.2,0.2-0.4,0.2-0.6,0.1C18.9,19.9,18.9,19.6,19.1,19.4z"/>
			<path class="st2" d="M28.8,13.7c1.8-0.7,3.6-1.2,5.5-1.6c0.3-0.1,0.5,0.1,0.6,0.4s-0.1,0.5-0.4,0.6l0,0c-1.8,0.4-3.6,0.9-5.3,1.5
				c-0.2,0.1-0.5,0-0.6-0.3S28.6,13.8,28.8,13.7z"/>
			<path class="st2" d="M40,11.4c1.9-0.1,3.8,0,5.7,0.3c0.3,0,0.5,0.3,0.4,0.6c0,0.3-0.3,0.5-0.6,0.4l0,0c-1.8-0.3-3.7-0.4-5.5-0.3
				c-0.3,0-0.5-0.2-0.5-0.5C39.5,11.6,39.7,11.4,40,11.4z"/>
			<path class="st2" d="M51.2,13c1.8,0.6,3.6,1.3,5.3,2.1c0.3,0.1,0.4,0.5,0.3,0.7c-0.1,0.3-0.5,0.4-0.7,0.3l0,0
				c-1.7-0.8-3.4-1.5-5.2-2.1c-0.3-0.1-0.4-0.4-0.4-0.7C50.6,13,50.9,12.9,51.2,13z"/>
			<path class="st2" d="M61.5,17.8c1.6,1,3.1,2.1,4.7,3.2c0.3,0.2,0.3,0.5,0.2,0.8c-0.2,0.3-0.5,0.3-0.8,0.2l0,0l0,0
				c-1.5-1-3-2.2-4.6-3.1c-0.3-0.2-0.4-0.5-0.2-0.8C60.9,17.7,61.3,17.6,61.5,17.8z"/>
			<path class="st2" d="M70.7,24.4l4.4,3.5c0.3,0.2,0.3,0.6,0.1,0.9s-0.6,0.3-0.9,0.1l0,0l-4.4-3.5c-0.3-0.2-0.3-0.6-0.1-0.9
				C70.1,24.2,70.4,24.2,70.7,24.4z"/>
			<path class="st2" d="M79.6,31.2c1.5,1.1,3.1,2,4.7,2.9c0.3,0.2,0.5,0.6,0.3,0.9s-0.6,0.5-0.9,0.3l0,0c-1.7-0.9-3.3-1.9-4.9-3
				c-0.3-0.2-0.4-0.6-0.2-0.9C78.9,31.1,79.3,31,79.6,31.2z"/>
			<path class="st2" d="M89.4,36.1c1.7,0.5,3.6,0.8,5.4,0.9c0.4,0,0.6,0.3,0.6,0.7s-0.3,0.6-0.7,0.6c-1.9-0.1-3.9-0.4-5.7-0.9
				c-0.4-0.1-0.6-0.5-0.5-0.8C88.7,36.2,89.1,36,89.4,36.1L89.4,36.1z"/>
			<path class="st2" d="M100.3,36.7c1.8-0.3,3.6-0.7,5.4-1.2c0.3-0.1,0.7,0.1,0.8,0.4s-0.1,0.7-0.4,0.8c-1.8,0.6-3.7,1-5.6,1.3
				c-0.3,0.1-0.7-0.2-0.7-0.5C99.7,37.1,99.9,36.7,100.3,36.7L100.3,36.7z"/>
			<path class="st2" d="M110.9,33.5c1.7-0.8,3.3-1.7,4.8-2.7c0.3-0.2,0.6-0.1,0.8,0.2s0.1,0.6-0.2,0.8c-1.6,1.1-3.2,2-5,2.8
				c-0.3,0.1-0.7,0-0.8-0.3S110.5,33.6,110.9,33.5L110.9,33.5z"/>
			<path class="st2" d="M120.1,27.4c1.4-1.2,2.7-2.5,3.9-4c0.2-0.2,0.5-0.3,0.8-0.1c0.2,0.2,0.3,0.5,0.1,0.8c-1.2,1.5-2.5,2.8-4,4.1
				c-0.2,0.2-0.6,0.2-0.8,0C119.8,28,119.9,27.6,120.1,27.4L120.1,27.4z"/>
			<path class="st2" d="M127.2,19l1.3-2.3l0.9,0.6c-0.6,0.6-1.1,1.3-1.5,2.1c-0.1,0.3-0.4,0.4-0.7,0.2c-0.3-0.1-0.4-0.4-0.2-0.7
				c0.4-0.8,1-1.6,1.6-2.3c0.2-0.2,0.5-0.3,0.7-0.1c0.2,0.2,0.2,0.4,0.1,0.7l-1.3,2.4c-0.1,0.3-0.5,0.4-0.7,0.2
				C127.2,19.6,127.1,19.3,127.2,19L127.2,19L127.2,19z"/>
			<path class="st2" d="M126.6,24.5c0,1.7,0.4,3.4,1.1,4.9l-0.1-0.1l0.2,0.2c0.2,0.2,0.2,0.5,0,0.7s-0.5,0.2-0.7,0l-0.2-0.2
				l-0.1-0.1c-0.8-1.7-1.3-3.5-1.3-5.4c0-0.3,0.2-0.5,0.5-0.5S126.6,24.3,126.6,24.5L126.6,24.5z"/>
			<path class="st2" d="M132,33.2c1.5,1,3.2,1.9,4.9,2.6c0.2,0.1,0.3,0.4,0.3,0.6c-0.1,0.2-0.4,0.3-0.6,0.3
				c-1.8-0.7-3.5-1.6-5.1-2.6c-0.2-0.1-0.3-0.4-0.1-0.7C131.5,33.2,131.8,33.1,132,33.2L132,33.2z"/>
			<path class="st2" d="M142.3,37.3c1.8,0.3,3.7,0.5,5.5,0.6c0.2,0,0.4,0.2,0.4,0.4s-0.2,0.4-0.4,0.4c-1.9-0.1-3.8-0.2-5.7-0.6
				c-0.2,0-0.4-0.3-0.4-0.5C141.8,37.4,142,37.3,142.3,37.3L142.3,37.3z"/>
			<path class="st2" d="M153.4,37.7l5.6-0.8l0,0c0.2,0,0.4,0.1,0.4,0.3s-0.1,0.4-0.3,0.4l-5.6,0.8c-0.2,0-0.4-0.1-0.5-0.3
				C153,38,153.1,37.8,153.4,37.7L153.4,37.7L153.4,37.7z"/>
			<path class="st2" d="M164.4,35.7c1.8-0.6,3.6-1.1,5.3-1.8c0.2-0.1,0.4,0,0.5,0.2s0,0.4-0.2,0.5c-1.8,0.7-3.6,1.2-5.4,1.8
				c-0.2,0.1-0.4,0-0.5-0.2C164.1,35.9,164.2,35.7,164.4,35.7L164.4,35.7L164.4,35.7z"/>
			<path class="st2" d="M175,31.9l5.2-2.1c0.1-0.1,0.3,0,0.4,0.2c0.1,0.1,0,0.3-0.1,0.4l-5.2,2.2c-0.2,0.1-0.4,0-0.4-0.2
				C174.8,32.1,174.8,32,175,31.9L175,31.9z"/>
			<path class="st2" d="M185.5,27.7l5.3-1.9c0.1,0,0.2,0,0.2,0.1s0,0.2-0.1,0.2l-5.3,2c-0.1,0-0.2,0-0.3-0.1
				C185.3,27.9,185.4,27.8,185.5,27.7L185.5,27.7z"/>
			<path class="st2" d="M196.3,24.3l5.5-1.1c0,0,0.1,0,0.1,0.1c0,0,0,0.1-0.1,0.1l-5.5,1.2c-0.1,0-0.1,0-0.2-0.1
				C196.2,24.3,196.2,24.3,196.3,24.3L196.3,24.3z"/>
			<path class="st2" d="M207.4,22.6h2.7H207.4C207.4,22.7,207.4,22.7,207.4,22.6C207.4,22.7,207.4,22.7,207.4,22.6L207.4,22.6z"/>
		</g>
	</g>
	<circle class="st1" cx="242.3" cy="28.2" r="3"/>
</g>
<g>
	<path class="st0" d="M249.6,18.1c0,0,5.1-7.2-1.3-12.3c0.5,2.2,0.8,6.8,0.8,6.8s-1.1-1.9-3-2.4C246.8,11.7,248.8,13.6,249.6,18.1z"
		/>
	<path class="st0" d="M247.1,18c0,0-3.1-11.6-16.1-10.2c3.5,1.2,5.9,2.2,10,5.9c-4.6-0.1-5.7,0.5-6.9,1.2
		C236.6,15.6,247.1,18,247.1,18z"/>
	<path class="st0" d="M260,25.9c0,0-2,3.9-4.2,4.4c0.7,0.1,0.6,0.2,2.7-0.8c-0.5,1.3-1.7,3.6-3,4.6C257.3,33.4,261.6,31.1,260,25.9z
		"/>
	<path class="st0" d="M228.3,25.2c0,0-0.5-0.3-0.6-0.3c-0.8-0.4-6.5-2.8-11.9-2c2.8,0.9,7.6,2.3,7.6,2.3s-3.7,0.6-5.1,3.8
		c2.7-0.6,5.9-1.3,9.7-3.7L228.3,25.2z"/>
	<ellipse transform="matrix(0.989 -0.1481 0.1481 0.989 -1.1173 36.4195)" class="st0" cx="244" cy="25.7" rx="8.6" ry="6.7"/>
	<ellipse class="st1" cx="242.8" cy="25" rx="4.2" ry="4"/>
	<g>
		<g>
			<g>
				<g>
					<g>
						<path d="M246.5,22.8c-1.2-1.8-4-2.4-6-1.2c-1.9,1.2-2.5,4-1.1,5.7c0.3-1.4,1.9-2.3,3.3-2c1.4,0.3,2.4,1.7,2.4,3.2
							C247.1,27.3,247.8,24.6,246.5,22.8z M245,24.7c-0.6,0.4-1.4,0.2-1.7-0.4c-0.4-0.6-0.2-1.3,0.4-1.7s1.4-0.2,1.7,0.4
							C245.8,23.6,245.6,24.4,245,24.7z"/>
					</g>
				</g>
				<g>
					<path class="st2" d="M252.8,24.5c0.2,1.6-0.5,3.4-1.7,4.5c0.5-0.7,0.8-1.4,1-2.1s0.3-1.5,0.2-2.3c-0.2-1.5-1-2.9-2.2-3.9
						C251.5,21.2,252.6,22.8,252.8,24.5z"/>
				</g>
				<g>
					<path class="st2" d="M237.3,30.5c-1-1-1.7-2.3-1.8-3.6c0.5,1.2,1.2,2.4,2.2,3.3c0.9,0.9,2,1.7,3.3,2.3
						C239.6,32.2,238.3,31.5,237.3,30.5z"/>
				</g>
				<g>
					<g>
						<path class="st2" d="M251.4,20.7c-2.9-0.7-6.1-0.9-9.1-0.5c-3,0.5-5.9,1.6-8.6,3.2c-2.7,1.6-4.9,3.7-6.8,6.1
							c1.5-2.7,3.7-5,6.4-6.8c2.6-1.8,5.6-3,8.8-3.5c3.1-0.5,6.4-0.2,9.4,0.7s5.8,2.5,8,4.5C257.2,22.7,254.3,21.4,251.4,20.7z"/>
					</g>
					<g>
						<path class="st2" d="M245.6,17.7c-0.5-0.2-1.1-0.3-1.7-0.4c-1.1-0.3-2.2-0.5-3.4-0.7c-2.3-0.4-4.6-0.7-6.8-1.2
							c-0.1,0-0.2-0.1-0.2-0.2c-0.1-0.2-0.1-0.4,0.1-0.5l0,0c1.1-0.7,2.3-1.1,3.6-1.2c1.2-0.2,2.5-0.2,3.8-0.1l-0.4,0.8
							c-1.5-1.4-3-2.6-4.9-3.6c-1.8-1-3.7-1.7-5.7-2.3l0,0c-0.1-0.1-0.2-0.2-0.3-0.3c-0.1-0.3,0.1-0.5,0.4-0.6
							c1.9-0.4,3.8-0.4,5.7,0c1.8,0.4,3.5,1.2,5,2.3c1.5,1,2.8,2.3,3.9,3.7c1.1,1.4,2,3,2.5,4.7C246.7,17.9,246.1,17.7,245.6,17.7z
							 M244.6,13.6c-1.2-1.3-2.5-2.5-4-3.4s-3.1-1.6-4.9-2c-1.7-0.4-3.5-0.3-5.3,0.1V7.4c2,0.7,3.9,1.4,5.8,2.4c1.8,1,3.6,2.3,5,3.7
							l0,0c0.1,0.1,0.2,0.2,0.1,0.4c0,0.3-0.3,0.5-0.5,0.4c-1.2-0.2-2.4-0.2-3.5,0c-1.2,0.1-2.3,0.5-3.3,1l-0.1-0.7
							c2.2,0.6,4.5,0.9,6.7,1.5c1.1,0.2,2.2,0.6,3.3,0.9c0.5,0.2,1.1,0.4,1.6,0.6c0.6,0.2,1,0.4,1.6,0.6
							C246.6,16.4,245.6,14.9,244.6,13.6z"/>
					</g>
					<g>
						<path class="st2" d="M249.3,17.2c-0.1-0.4-0.2-0.7-0.4-1.1c-0.3-0.7-0.6-1.4-0.9-2.1c-0.7-1.4-1.6-2.6-2.6-3.7
							c-0.1-0.1-0.1-0.2-0.1-0.3c0-0.2,0.2-0.3,0.5-0.3l0,0c0.8,0.2,1.5,0.5,2.1,1s1.1,1,1.6,1.6l-0.8,0.2c0.1-1.4-0.1-2.8-0.5-4.1
							s-1-2.6-1.6-3.9c0-0.1-0.1-0.3,0-0.4c0.1-0.2,0.4-0.3,0.7-0.2c1.2,0.7,2.3,1.7,3,2.8s1.2,2.5,1.4,3.8s0.1,2.7-0.3,4
							c-0.2,0.6-0.5,1.3-0.7,1.9c-0.2,0.3-0.3,0.6-0.5,0.9s-0.4,0.5-0.6,0.8C249.5,17.9,249.4,17.4,249.3,17.2z M250.1,17.3
							c0.1-0.3,0.3-0.6,0.4-0.9c0.2-0.6,0.4-1.2,0.5-1.9c0.2-1.3,0.3-2.6,0-3.8c-0.2-1.3-0.7-2.4-1.4-3.5c-0.7-1-1.7-1.9-2.8-2.5
							l0.7-0.6c0.7,1.3,1.3,2.6,1.7,4s0.6,2.9,0.5,4.4l0,0c0,0.2-0.1,0.3-0.2,0.3c-0.2,0.1-0.5,0.1-0.6-0.1
							c-0.5-0.6-0.9-1.1-1.5-1.5s-1.2-0.7-1.8-0.9l0.4-0.6c1,1.2,1.8,2.5,2.4,4c0.3,0.7,0.5,1.4,0.7,2.2c0.1,0.4,0.2,0.7,0.3,1.1
							s0.1,0.7,0.2,1.1C249.8,17.9,249.9,17.6,250.1,17.3z"/>
					</g>
					<g>
						<path class="st2" d="M260,25.9c0,0.2,0.1,0.4,0.2,0.6c0,0.2,0.1,0.4,0.1,0.7c0,0.4,0.1,0.9,0.1,1.3c0,0.9-0.3,1.8-0.7,2.6
							c-0.4,0.8-1,1.6-1.7,2.2s-1.6,1.1-2.5,1.3c-0.2,0-0.4,0-0.4-0.2c0-0.1,0-0.2,0.1-0.3c0.7-0.7,1.3-1.4,1.9-2.2s0.9-1.6,1.2-2.5
							l0.5,0.3c-0.4,0.3-0.9,0.6-1.4,0.7c-0.5,0.2-1,0.3-1.6,0.2l0,0c-0.2,0-0.3-0.1-0.2-0.2c0-0.1,0.1-0.2,0.1-0.2
							c0.9-0.5,1.7-1.2,2.5-1.9c0.4-0.3,0.7-0.8,1-1.2c0.2-0.2,0.3-0.4,0.5-0.6C259.6,26.4,259.8,26.1,260,25.9z M260,25.9
							c-0.1,0.3-0.2,0.5-0.4,0.7c-0.1,0.2-0.3,0.5-0.4,0.7c-0.3,0.4-0.6,0.8-0.9,1.3c-0.7,0.8-1.5,1.5-2.4,2.1l-0.1-0.5
							c0.5,0,0.9-0.1,1.4-0.3c0.4-0.2,0.8-0.4,1.3-0.7c0.1-0.1,0.4-0.1,0.4,0s0.1,0.1,0,0.2l0,0c-0.2,0.9-0.7,1.9-1.2,2.7
							c-0.6,0.8-1.2,1.6-2,2.2l-0.3-0.5c0.8-0.2,1.6-0.6,2.3-1.1s1.3-1.2,1.7-1.9c0.4-0.7,0.7-1.6,0.8-2.4c0.1-0.4,0.1-0.9,0-1.3
							c0-0.2,0-0.4-0.1-0.6C260,26.3,260,26.1,260,25.9z"/>
					</g>
					<g>
						<path class="st2" d="M251.8,31.2c-2.4,1.2-5.1,1.9-7.8,1.9s-5.3-0.7-7.7-1.8c-2.4-1.1-4.5-2.7-6-4.7c1.9,1.7,4,3.1,6.4,4.1
							c2.3,1,4.9,1.5,7.4,1.5s5.1-0.6,7.4-1.6c2.4-1,4.5-2.5,6.4-4.3C256.3,28.4,254.2,30.1,251.8,31.2z"/>
					</g>
				</g>
			</g>
		</g>
		<g>
			<path class="st2" d="M-7.6,15.4l2.2-1.5l0,0l0,0l0,0L-7.6,15.4z"/>
			<path class="st2" d="M-0.2,11.7c1.8-0.5,3.7-0.9,5.5-1.1c0.1,0,0.1,0,0.1,0.1s0,0.1-0.1,0.1l0,0c-1.9,0.2-3.7,0.5-5.5,1
				C-0.2,11.8-0.2,11.8-0.2,11.7L-0.2,11.7z"/>
			<path class="st2" d="M11,10.4c1.9,0.1,3.8,0.3,5.6,0.6c0.1,0,0.2,0.1,0.2,0.3c0,0.1-0.1,0.2-0.3,0.2l0,0
				c-1.8-0.4-3.7-0.6-5.6-0.7c-0.1,0-0.2-0.1-0.2-0.2C10.8,10.5,10.9,10.4,11,10.4z"/>
			<path class="st2" d="M22.1,12.5c1.8,0.6,3.5,1.4,5.2,2.4c0.1,0.1,0.2,0.3,0.1,0.4s-0.3,0.2-0.4,0.1l0,0c-1.6-1-3.3-1.8-5-2.4
				c-0.1-0.1-0.2-0.2-0.2-0.3C21.8,12.5,22,12.4,22.1,12.5z"/>
			<path class="st2" d="M31.6,18.6c1.2,1.5,2,3.4,1.9,5.4c0,0.2-0.2,0.4-0.4,0.4s-0.4-0.2-0.4-0.4l0,0c0.1-1.8-0.6-3.5-1.8-5
				c-0.1-0.2-0.1-0.4,0.1-0.5C31.3,18.4,31.5,18.4,31.6,18.6z"/>
			<path class="st2" d="M31.2,29.3c-1.7,1.1-3.6,1.6-5.5,1.9c-0.2,0-0.4-0.1-0.5-0.3c0-0.2,0.1-0.4,0.3-0.5l0,0
				c1.8-0.3,3.6-0.7,5.1-1.7c0.2-0.1,0.4-0.1,0.5,0.1C31.4,28.9,31.4,29.2,31.2,29.3z"/>
			<path class="st2" d="M20.1,30c-1.6-1.2-2.7-3-2.9-5c0-0.2,0.1-0.4,0.4-0.5c0.2,0,0.4,0.1,0.5,0.4l0,0c0.2,1.7,1.1,3.4,2.5,4.5
				c0.2,0.1,0.2,0.4,0.1,0.6C20.6,30.1,20.3,30.1,20.1,30z"/>
			<path class="st2" d="M19.1,19.4c1.2-1.5,2.8-2.7,4.6-3.6c0.2-0.1,0.5,0,0.6,0.2c0.1,0.2,0,0.5-0.2,0.6l0,0
				c-1.6,0.8-3.1,1.9-4.3,3.3c-0.2,0.2-0.4,0.2-0.6,0.1C18.9,19.9,18.9,19.6,19.1,19.4z"/>
			<path class="st2" d="M28.8,13.7c1.8-0.7,3.6-1.2,5.5-1.6c0.3-0.1,0.5,0.1,0.6,0.4s-0.1,0.5-0.4,0.6l0,0c-1.8,0.4-3.6,0.9-5.3,1.5
				c-0.2,0.1-0.5,0-0.6-0.3S28.6,13.8,28.8,13.7z"/>
			<path class="st2" d="M40,11.4c1.9-0.1,3.8,0,5.7,0.3c0.3,0,0.5,0.3,0.4,0.6c0,0.3-0.3,0.5-0.6,0.4l0,0c-1.8-0.3-3.7-0.4-5.5-0.3
				c-0.3,0-0.5-0.2-0.5-0.5C39.5,11.6,39.7,11.4,40,11.4z"/>
			<path class="st2" d="M51.2,13c1.8,0.6,3.6,1.3,5.3,2.1c0.3,0.1,0.4,0.5,0.3,0.7c-0.1,0.3-0.5,0.4-0.7,0.3l0,0
				c-1.7-0.8-3.4-1.5-5.2-2.1c-0.3-0.1-0.4-0.4-0.4-0.7C50.6,13,50.9,12.9,51.2,13z"/>
			<path class="st2" d="M61.5,17.8c1.6,1,3.1,2.1,4.7,3.2c0.3,0.2,0.3,0.5,0.2,0.8c-0.2,0.3-0.5,0.3-0.8,0.2l0,0l0,0
				c-1.5-1-3-2.2-4.6-3.1c-0.3-0.2-0.4-0.5-0.2-0.8C60.9,17.7,61.3,17.6,61.5,17.8z"/>
			<path class="st2" d="M70.7,24.4l4.4,3.5c0.3,0.2,0.3,0.6,0.1,0.9s-0.6,0.3-0.9,0.1l0,0l-4.4-3.5c-0.3-0.2-0.3-0.6-0.1-0.9
				C70.1,24.2,70.4,24.2,70.7,24.4z"/>
			<path class="st2" d="M79.6,31.2c1.5,1.1,3.1,2,4.7,2.9c0.3,0.2,0.5,0.6,0.3,0.9s-0.6,0.5-0.9,0.3l0,0c-1.7-0.9-3.3-1.9-4.9-3
				c-0.3-0.2-0.4-0.6-0.2-0.9C78.9,31.1,79.3,31,79.6,31.2z"/>
			<path class="st2" d="M89.4,36.1c1.7,0.5,3.6,0.8,5.4,0.9c0.4,0,0.6,0.3,0.6,0.7s-0.3,0.6-0.7,0.6c-1.9-0.1-3.9-0.4-5.7-0.9
				c-0.4-0.1-0.6-0.5-0.5-0.8C88.7,36.2,89.1,36,89.4,36.1L89.4,36.1z"/>
			<path class="st2" d="M100.3,36.7c1.8-0.3,3.6-0.7,5.4-1.2c0.3-0.1,0.7,0.1,0.8,0.4s-0.1,0.7-0.4,0.8c-1.8,0.6-3.7,1-5.6,1.3
				c-0.3,0.1-0.7-0.2-0.7-0.5C99.7,37.1,99.9,36.7,100.3,36.7L100.3,36.7z"/>
			<path class="st2" d="M110.9,33.5c1.7-0.8,3.3-1.7,4.8-2.7c0.3-0.2,0.6-0.1,0.8,0.2s0.1,0.6-0.2,0.8c-1.6,1.1-3.2,2-5,2.8
				c-0.3,0.1-0.7,0-0.8-0.3S110.5,33.6,110.9,33.5L110.9,33.5z"/>
			<path class="st2" d="M120.1,27.4c1.4-1.2,2.7-2.5,3.9-4c0.2-0.2,0.5-0.3,0.8-0.1c0.2,0.2,0.3,0.5,0.1,0.8c-1.2,1.5-2.5,2.8-4,4.1
				c-0.2,0.2-0.6,0.2-0.8,0C119.8,28,119.9,27.6,120.1,27.4L120.1,27.4z"/>
			<path class="st2" d="M127.2,19l1.3-2.3l0.9,0.6c-0.6,0.6-1.1,1.3-1.5,2.1c-0.1,0.3-0.4,0.4-0.7,0.2c-0.3-0.1-0.4-0.4-0.2-0.7
				c0.4-0.8,1-1.6,1.6-2.3c0.2-0.2,0.5-0.3,0.7-0.1c0.2,0.2,0.2,0.4,0.1,0.7l-1.3,2.4c-0.1,0.3-0.5,0.4-0.7,0.2
				C127.2,19.6,127.1,19.3,127.2,19L127.2,19L127.2,19z"/>
			<path class="st2" d="M126.6,24.5c0,1.7,0.4,3.4,1.1,4.9l-0.1-0.1l0.2,0.2c0.2,0.2,0.2,0.5,0,0.7s-0.5,0.2-0.7,0l-0.2-0.2
				l-0.1-0.1c-0.8-1.7-1.3-3.5-1.3-5.4c0-0.3,0.2-0.5,0.5-0.5S126.6,24.3,126.6,24.5L126.6,24.5z"/>
			<path class="st2" d="M132,33.2c1.5,1,3.2,1.9,4.9,2.6c0.2,0.1,0.3,0.4,0.3,0.6c-0.1,0.2-0.4,0.3-0.6,0.3
				c-1.8-0.7-3.5-1.6-5.1-2.6c-0.2-0.1-0.3-0.4-0.1-0.7C131.5,33.2,131.8,33.1,132,33.2L132,33.2z"/>
			<path class="st2" d="M142.3,37.3c1.8,0.3,3.7,0.5,5.5,0.6c0.2,0,0.4,0.2,0.4,0.4s-0.2,0.4-0.4,0.4c-1.9-0.1-3.8-0.2-5.7-0.6
				c-0.2,0-0.4-0.3-0.4-0.5C141.8,37.4,142,37.3,142.3,37.3L142.3,37.3z"/>
			<path class="st2" d="M153.4,37.7l5.6-0.8l0,0c0.2,0,0.4,0.1,0.4,0.3s-0.1,0.4-0.3,0.4l-5.6,0.8c-0.2,0-0.4-0.1-0.5-0.3
				C153,38,153.1,37.8,153.4,37.7L153.4,37.7L153.4,37.7z"/>
			<path class="st2" d="M164.4,35.7c1.8-0.6,3.6-1.1,5.3-1.8c0.2-0.1,0.4,0,0.5,0.2s0,0.4-0.2,0.5c-1.8,0.7-3.6,1.2-5.4,1.8
				c-0.2,0.1-0.4,0-0.5-0.2C164.1,35.9,164.2,35.7,164.4,35.7L164.4,35.7L164.4,35.7z"/>
			<path class="st2" d="M175,31.9l5.2-2.1c0.1-0.1,0.3,0,0.4,0.2c0.1,0.1,0,0.3-0.1,0.4l-5.2,2.2c-0.2,0.1-0.4,0-0.4-0.2
				C174.8,32.1,174.8,32,175,31.9L175,31.9z"/>
			<path class="st2" d="M185.5,27.7l5.3-1.9c0.1,0,0.2,0,0.2,0.1s0,0.2-0.1,0.2l-5.3,2c-0.1,0-0.2,0-0.3-0.1
				C185.3,27.9,185.4,27.8,185.5,27.7L185.5,27.7z"/>
			<path class="st2" d="M196.3,24.3l5.5-1.1c0,0,0.1,0,0.1,0.1c0,0,0,0.1-0.1,0.1l-5.5,1.2c-0.1,0-0.1,0-0.2-0.1
				C196.2,24.3,196.2,24.3,196.3,24.3L196.3,24.3z"/>
			<path class="st2" d="M207.4,22.6h2.7H207.4C207.4,22.7,207.4,22.7,207.4,22.6C207.4,22.7,207.4,22.7,207.4,22.6L207.4,22.6z"/>
		</g>
	</g>
	<circle class="st1" cx="242.3" cy="28.2" r="3"/>
</g>
</svg>
