<?xml version="1.0" encoding="utf-8"?>
<!-- Generator: Adobe Illustrator 27.7.0, SVG Export Plug-In . SVG Version: 6.00 Build 0)  -->
<svg version="1.1" id="Layer_1" xmlns="http://www.w3.org/2000/svg" xmlns:xlink="http://www.w3.org/1999/xlink" x="0px" y="0px"
	 viewBox="0 0 260.8 41.6" style="enable-background:new 0 0 260.8 41.6;" xml:space="preserve">
<style type="text/css">
	.st0{fill:#CFCFCF;}
	.st1{fill:#FFFFFF;}
	.st2{fill:#898989;}
</style>
<g id="Layer_2_00000012442544698115389220000015475033601706486154_">
	<path class="st0" d="M11.1,18.1c0,0-5.1-7.2,1.3-12.3c-0.5,2.2-0.8,6.8-0.8,6.8s1.1-1.9,3-2.4C13.9,11.7,11.9,13.6,11.1,18.1z"/>
	<path class="st0" d="M13.6,18c0,0,3.1-11.6,16.1-10.2c-3.5,1.2-5.9,2.2-10,5.9c4.6-0.1,5.7,0.5,6.9,1.2C24.1,15.6,13.6,18,13.6,18z
		"/>
	<path class="st0" d="M0.7,25.9c0,0,2,3.9,4.2,4.4c-0.7,0.1-0.6,0.2-2.7-0.8c0.5,1.3,1.7,3.6,3,4.6C3.4,33.4-0.9,31.1,0.7,25.9z"/>
	<path class="st0" d="M32.4,25.2c0,0,0.5-0.3,0.6-0.3c0.8-0.4,6.5-2.8,11.9-2c-2.8,0.9-7.6,2.3-7.6,2.3s3.7,0.6,5.1,3.8
		c-2.7-0.6-5.9-1.3-9.7-3.7L32.4,25.2z"/>
	<ellipse transform="matrix(0.1596 -0.9872 0.9872 0.1596 -11.2999 37.9409)" class="st0" cx="16.6" cy="25.6" rx="6.8" ry="8.6"/>
</g>
<g id="Capa_1">
	<ellipse class="st1" cx="17.9" cy="25" rx="4.2" ry="4"/>
	<g>
		<g>
			<g>
				<g>
					<g>
						<path d="M15.6,28.5c0-1.5,1-2.9,2.4-3.2s3,0.6,3.3,2c1.4-1.7,0.8-4.5-1.1-5.7c-2-1.2-4.8-0.6-6,1.2
							C12.9,24.6,13.6,27.3,15.6,28.5z M15.3,23c0.3-0.6,1.1-0.8,1.7-0.4s0.8,1.1,0.4,1.7c-0.3,0.6-1.1,0.8-1.7,0.4
							C15.1,24.4,14.9,23.6,15.3,23z"/>
					</g>
				</g>
				<g>
					<path class="st2" d="M10.6,20.6c-1.2,1.1-2,2.4-2.2,3.9c-0.1,0.8,0,1.6,0.2,2.3c0.2,0.7,0.5,1.4,1,2.1
						c-1.2-1.1-1.9-2.9-1.7-4.5C8.1,22.8,9.2,21.2,10.6,20.6z"/>
				</g>
				<g>
					<path class="st2" d="M19.7,32.5c1.3-0.6,2.4-1.4,3.3-2.3c1-0.9,1.7-2.1,2.2-3.3c-0.1,1.3-0.8,2.6-1.8,3.6S21.1,32.2,19.7,32.5z
						"/>
				</g>
				<g>
					<g>
						<path class="st2" d="M1.2,24.4c2.2-2,5-3.6,8-4.5s6.3-1.2,9.4-0.7c3.2,0.5,6.2,1.7,8.8,3.5c2.7,1.8,4.9,4.1,6.4,6.8
							c-1.9-2.4-4.1-4.5-6.8-6.1s-5.6-2.7-8.6-3.2c-3-0.4-6.2-0.2-9.1,0.5S3.5,22.7,1.2,24.4z"/>
					</g>
					<g>
						<path class="st2" d="M13.5,18.1c0.5-1.7,1.4-3.3,2.5-4.7s2.4-2.7,3.9-3.7c1.5-1.1,3.2-1.9,5-2.3c1.9-0.4,3.8-0.4,5.7,0
							C30.9,7.5,31.1,7.7,31,8c-0.1,0.1-0.2,0.2-0.3,0.3l0,0c-2,0.6-3.9,1.3-5.7,2.3c-1.9,1-3.4,2.2-4.9,3.6l-0.4-0.8
							c1.3-0.1,2.6-0.1,3.8,0.1c1.3,0.1,2.5,0.5,3.6,1.2l0,0c0.2,0.1,0.2,0.3,0.1,0.5c0,0.1-0.1,0.2-0.2,0.2
							c-2.2,0.5-4.5,0.8-6.8,1.2c-1.2,0.2-2.3,0.4-3.4,0.7c-0.6,0.1-1.2,0.2-1.7,0.4C14.6,17.7,14,17.9,13.5,18.1z M13.6,18.2
							c0.6-0.2,1-0.4,1.6-0.6c0.5-0.2,1.1-0.4,1.6-0.6c1.1-0.3,2.2-0.7,3.3-0.9c2.2-0.6,4.5-0.9,6.7-1.5l-0.1,0.7
							c-1-0.5-2.1-0.9-3.3-1c-1.1-0.2-2.3-0.2-3.5,0c-0.2,0.1-0.5-0.1-0.5-0.4c-0.1-0.2,0-0.3,0.1-0.4l0,0c1.4-1.4,3.2-2.7,5-3.7
							c1.9-1,3.8-1.7,5.8-2.4v0.9c-1.8-0.4-3.6-0.5-5.3-0.1c-1.8,0.4-3.4,1.1-4.9,2s-2.8,2.1-4,3.4C15.1,14.9,14.1,16.4,13.6,18.2z"
							/>
					</g>
					<g>
						<path class="st2" d="M11.1,18.1c-0.2-0.3-0.4-0.5-0.6-0.8s-0.3-0.6-0.5-0.9c-0.2-0.6-0.5-1.3-0.7-1.9c-0.4-1.3-0.5-2.7-0.3-4
							s0.7-2.7,1.4-3.8s1.8-2.1,3-2.8c0.3-0.1,0.6,0,0.7,0.2c0.1,0.1,0,0.3,0,0.4c-0.6,1.3-1.2,2.6-1.6,3.9s-0.6,2.7-0.5,4.1
							l-0.8-0.2c0.5-0.6,1-1.1,1.6-1.6s1.3-0.8,2.1-1l0,0c0.3,0,0.5,0.1,0.5,0.3c0,0.1,0,0.2-0.1,0.3c-1,1.1-1.9,2.3-2.6,3.7
							c-0.3,0.7-0.6,1.4-0.9,2.1c-0.2,0.4-0.3,0.7-0.4,1.1C11.3,17.4,11.2,17.9,11.1,18.1z M11.1,18.1c0.1-0.4,0.1-0.7,0.2-1.1
							s0.2-0.7,0.3-1.1c0.2-0.8,0.4-1.5,0.7-2.2c0.6-1.5,1.4-2.8,2.4-4l0.4,0.6c-0.6,0.2-1.2,0.5-1.8,0.9s-1,0.9-1.5,1.5
							c-0.1,0.2-0.4,0.2-0.6,0.1c-0.1,0-0.2-0.1-0.2-0.3l0,0c-0.1-1.5,0.1-3,0.5-4.4s1-2.7,1.7-4l0.7,0.6c-1.1,0.6-2.1,1.5-2.8,2.5
							c-0.7,1.1-1.2,2.2-1.4,3.5c-0.3,1.2-0.2,2.5,0,3.8c0.1,0.7,0.3,1.3,0.5,1.9c0.1,0.3,0.3,0.6,0.4,0.9
							C10.8,17.6,10.9,17.9,11.1,18.1z"/>
					</g>
					<g>
						<path class="st2" d="M1,26.5c0.2,0.2,0.3,0.4,0.5,0.6c0.3,0.4,0.6,0.9,1,1.2C3.3,29,4.1,29.7,5,30.2c0,0,0.1,0.1,0.1,0.2
							c0.1,0.1,0,0.2-0.2,0.2l0,0c-0.6,0.1-1.1,0-1.6-0.2c-0.5-0.1-1-0.4-1.4-0.7l0.5-0.3c0.3,0.9,0.6,1.7,1.2,2.5
							c0.6,0.8,1.2,1.5,1.9,2.2c0.1,0.1,0.1,0.2,0.1,0.3c0,0.2-0.2,0.2-0.4,0.2c-0.9-0.2-1.8-0.7-2.5-1.3S1.4,31.9,1,31.1
							s-0.7-1.7-0.7-2.6c0-0.4,0.1-0.9,0.1-1.3c0-0.3,0.1-0.5,0.1-0.7c0.1-0.2,0.2-0.4,0.2-0.6C0.9,26.1,1.1,26.4,1,26.5z M0.6,26.5
							c-0.1,0.2-0.1,0.4-0.1,0.6c-0.1,0.4-0.1,0.9,0,1.3c0.1,0.8,0.4,1.7,0.8,2.4c0.4,0.7,1,1.4,1.7,1.9s1.5,0.9,2.3,1.1L5,34.3
							c-0.8-0.6-1.4-1.4-2-2.2c-0.5-0.8-1-1.8-1.2-2.7l0,0c-0.1-0.1,0-0.1,0-0.2s0.3-0.1,0.4,0c0.5,0.3,0.9,0.5,1.3,0.7
							c0.5,0.2,0.9,0.3,1.4,0.3l-0.1,0.5c-0.9-0.6-1.7-1.3-2.4-2.1c-0.3-0.5-0.6-0.9-0.9-1.3c-0.1-0.2-0.3-0.5-0.4-0.7
							c-0.2-0.2-0.3-0.4-0.4-0.7C0.7,26.1,0.7,26.3,0.6,26.5z"/>
					</g>
					<g>
						<path class="st2" d="M2.8,26.3c1.9,1.8,4,3.3,6.4,4.3c2.3,1,4.9,1.6,7.4,1.6s5.1-0.5,7.4-1.5c2.4-1,4.5-2.4,6.4-4.1
							c-1.5,2-3.6,3.6-6,4.7c-2.4,1.1-5,1.8-7.7,1.8s-5.4-0.7-7.8-1.9C6.5,30.1,4.4,28.4,2.8,26.3z"/>
					</g>
					<g>
						<path class="st2" d="M32.7,25c0.9-0.5,1.8-0.9,2.8-1.3s2.1-0.7,3.1-0.9c2-0.4,4.3-0.6,6.4-0.4c0.2,0.1,0.5,0.3,0.4,0.5
							c0,0.2-0.1,0.4-0.3,0.4l0,0c-1.3,0.4-2.6,0.8-3.9,1.1c-1.3,0.4-2.6,0.7-3.9,1.1v-0.9c1.2,0.3,2.3,0.8,3.2,1.5s1.8,1.6,2.3,2.6
							l0,0c0.1,0.2,0,0.5-0.2,0.5c-0.1,0-0.2,0-0.3,0c-0.8-0.2-1.7-0.3-2.6-0.6S38,28,37.2,27.7s-1.6-0.8-2.4-1.2
							c-0.3-0.3-0.7-0.5-1.1-0.7C33.3,25.7,32.9,25.4,32.7,25z M32.5,25.2c0.5,0.3,0.8,0.4,1.2,0.6s0.8,0.4,1.2,0.6
							c0.8,0.4,1.6,0.7,2.4,1c1.7,0.6,3.3,0.9,5.1,1.2L42,29.2c-0.6-0.9-1.3-1.7-2.1-2.3c-0.9-0.6-1.9-1-2.9-1.2
							c-0.2,0-0.5-0.3-0.4-0.5c0-0.2,0.1-0.4,0.3-0.4l0,0c1.3-0.4,2.6-0.7,3.9-1.1c1.4-0.3,2.7-0.7,4-1l0.1,0.9
							c-2-0.2-4.2-0.2-6.2,0.1c-1,0.1-2,0.3-3.1,0.6C34.6,24.5,33.6,24.8,32.5,25.2z"/>
					</g>
				</g>
			</g>
		</g>
		<g>
			<path class="st2" d="M266.1,13.9L266.1,13.9L266.1,13.9L266.1,13.9l2.2,1.5L266.1,13.9z"/>
			<path class="st2" d="M260.9,11.7c0,0.1,0,0.1,0,0.1c-1.8-0.5-3.6-0.8-5.5-1l0,0c-0.1,0-0.1,0-0.1-0.1s0-0.1,0.1-0.1
				C257.2,10.8,259.1,11.2,260.9,11.7L260.9,11.7z"/>
			<path class="st2" d="M250,10.6c0,0.1-0.1,0.2-0.2,0.2c-1.9,0.1-3.8,0.3-5.6,0.7l0,0c-0.2,0-0.3-0.1-0.3-0.2
				c0-0.2,0.1-0.3,0.2-0.3c1.8-0.3,3.7-0.5,5.6-0.6C249.8,10.4,249.9,10.5,250,10.6z"/>
			<path class="st2" d="M238.9,12.7c0,0.1-0.1,0.2-0.2,0.3c-1.7,0.6-3.4,1.4-5,2.4l0,0c-0.1,0.1-0.3,0-0.4-0.1s0-0.3,0.1-0.4
				c1.7-1,3.4-1.8,5.2-2.4C238.7,12.4,238.9,12.5,238.9,12.7z"/>
			<path class="st2" d="M229.7,18.5c0.2,0.1,0.2,0.3,0.1,0.5c-1.2,1.5-1.9,3.2-1.8,5l0,0c0,0.2-0.2,0.4-0.4,0.4s-0.4-0.2-0.4-0.4
				c-0.1-2,0.7-3.9,1.9-5.4C229.2,18.4,229.4,18.4,229.7,18.5z"/>
			<path class="st2" d="M229.6,28.8c0.1-0.2,0.3-0.2,0.5-0.1c1.5,1,3.3,1.4,5.1,1.7l0,0c0.2,0.1,0.3,0.3,0.3,0.5
				c-0.1,0.2-0.3,0.3-0.5,0.3c-1.9-0.3-3.8-0.8-5.5-1.9C229.3,29.2,229.3,28.9,229.6,28.8z"/>
			<path class="st2" d="M240,30c-0.1-0.2-0.1-0.5,0.1-0.6c1.4-1.1,2.3-2.8,2.5-4.5l0,0c0.1-0.3,0.3-0.4,0.5-0.4
				c0.3,0.1,0.4,0.3,0.4,0.5c-0.2,2-1.3,3.8-2.9,5C240.4,30.1,240.1,30.1,240,30z"/>
			<path class="st2" d="M241.5,20c-0.2,0.1-0.4,0.1-0.6-0.1c-1.2-1.4-2.7-2.5-4.3-3.3l0,0c-0.2-0.1-0.3-0.4-0.2-0.6s0.4-0.3,0.6-0.2
				c1.8,0.9,3.4,2.1,4.6,3.6C241.8,19.6,241.8,19.9,241.5,20z"/>
			<path class="st2" d="M232.1,14.3c-0.1,0.3-0.4,0.4-0.6,0.3c-1.7-0.6-3.5-1.1-5.3-1.5l0,0c-0.3-0.1-0.5-0.3-0.4-0.6
				s0.3-0.5,0.6-0.4c1.9,0.4,3.7,0.9,5.5,1.6C232.1,13.8,232.2,14,232.1,14.3z"/>
			<path class="st2" d="M221.2,11.9c0,0.3-0.2,0.5-0.5,0.5c-1.8-0.1-3.7,0-5.5,0.3l0,0c-0.3,0.1-0.6-0.1-0.6-0.4
				c-0.1-0.3,0.1-0.6,0.4-0.6c1.9-0.3,3.8-0.4,5.7-0.3C221,11.4,221.2,11.6,221.2,11.9z"/>
			<path class="st2" d="M210.2,13.3c0,0.3-0.1,0.6-0.4,0.7c-1.8,0.6-3.5,1.3-5.2,2.1l0,0c-0.2,0.1-0.6,0-0.7-0.3
				c-0.1-0.2,0-0.6,0.3-0.7c1.7-0.8,3.5-1.5,5.3-2.1C209.8,12.9,210.1,13,210.2,13.3z"/>
			<path class="st2" d="M199.9,18.1c0.2,0.3,0.1,0.6-0.2,0.8c-1.6,0.9-3.1,2.1-4.6,3.1l0,0l0,0c-0.3,0.1-0.6,0.1-0.8-0.2
				c-0.1-0.3-0.1-0.6,0.2-0.8c1.6-1.1,3.1-2.2,4.7-3.2C199.4,17.6,199.8,17.7,199.9,18.1z"/>
			<path class="st2" d="M190.9,24.5c0.2,0.3,0.2,0.7-0.1,0.9l-4.4,3.5l0,0c-0.3,0.2-0.7,0.2-0.9-0.1s-0.2-0.7,0.1-0.9l4.4-3.5
				C190.3,24.2,190.6,24.2,190.9,24.5z"/>
			<path class="st2" d="M182.1,31.4c0.2,0.3,0.1,0.7-0.2,0.9c-1.6,1.1-3.2,2.1-4.9,3l0,0c-0.3,0.2-0.7,0-0.9-0.3s0-0.7,0.3-0.9
				c1.6-0.9,3.2-1.8,4.7-2.9C181.4,31,181.8,31.1,182.1,31.4z"/>
			<path class="st2" d="M171.3,36.1c0.3-0.1,0.7,0.1,0.9,0.5c0.1,0.3-0.1,0.7-0.5,0.8c-1.8,0.5-3.8,0.8-5.7,0.9
				c-0.4,0-0.7-0.2-0.7-0.6s0.2-0.7,0.6-0.7C167.7,36.9,169.6,36.6,171.3,36.1L171.3,36.1z"/>
			<path class="st2" d="M160.4,36.7c0.4,0,0.6,0.4,0.5,0.8c0,0.3-0.4,0.6-0.7,0.5c-1.9-0.3-3.8-0.7-5.6-1.3
				c-0.3-0.1-0.5-0.5-0.4-0.8s0.5-0.5,0.8-0.4C156.8,36,158.6,36.4,160.4,36.7L160.4,36.7z"/>
			<path class="st2" d="M149.8,33.5c0.4,0.1,0.5,0.5,0.4,0.8s-0.5,0.4-0.8,0.3c-1.8-0.8-3.4-1.7-5-2.8c-0.3-0.2-0.4-0.5-0.2-0.8
				s0.5-0.4,0.8-0.2C146.5,31.8,148.1,32.7,149.8,33.5L149.8,33.5z"/>
			<path class="st2" d="M140.6,27.4c0.2,0.2,0.3,0.6,0,0.8c-0.2,0.2-0.6,0.2-0.8,0c-1.5-1.3-2.8-2.6-4-4.1c-0.2-0.3-0.1-0.6,0.1-0.8
				c0.3-0.2,0.6-0.1,0.8,0.1C137.9,24.9,139.2,26.2,140.6,27.4L140.6,27.4z"/>
			<path class="st2" d="M133.5,19L133.5,19c0.1,0.3,0,0.6-0.2,0.8c-0.2,0.2-0.6,0.1-0.7-0.2l-1.3-2.4c-0.1-0.3-0.1-0.5,0.1-0.7
				c0.2-0.2,0.5-0.1,0.7,0.1c0.6,0.7,1.2,1.5,1.6,2.3c0.2,0.3,0.1,0.6-0.2,0.7c-0.3,0.2-0.6,0.1-0.7-0.2c-0.4-0.8-0.9-1.5-1.5-2.1
				l0.9-0.6L133.5,19L133.5,19z"/>
			<path class="st2" d="M134.1,24.5c0-0.2,0.3-0.5,0.6-0.5s0.5,0.2,0.5,0.5c0,1.9-0.5,3.7-1.3,5.4l-0.1,0.1l-0.2,0.2
				c-0.2,0.2-0.5,0.2-0.7,0s-0.2-0.5,0-0.7l0.2-0.2l-0.1,0.1C133.7,27.9,134.1,26.2,134.1,24.5L134.1,24.5z"/>
			<path class="st2" d="M128.7,33.2c0.2-0.1,0.5,0,0.6,0.2c0.2,0.3,0.1,0.6-0.1,0.7c-1.6,1-3.3,1.9-5.1,2.6c-0.2,0-0.5-0.1-0.6-0.3
				c0-0.2,0.1-0.5,0.3-0.6C125.5,35.1,127.2,34.2,128.7,33.2L128.7,33.2z"/>
			<path class="st2" d="M118.4,37.3c0.3,0,0.5,0.1,0.6,0.3c0,0.2-0.2,0.5-0.4,0.5c-1.9,0.4-3.8,0.5-5.7,0.6c-0.2,0-0.4-0.2-0.4-0.4
				s0.2-0.4,0.4-0.4C114.7,37.8,116.6,37.6,118.4,37.3L118.4,37.3z"/>
			<path class="st2" d="M107.3,37.7L107.3,37.7c0.3,0.1,0.4,0.3,0.4,0.4c-0.1,0.2-0.3,0.3-0.5,0.3l-5.6-0.8c-0.2,0-0.3-0.2-0.3-0.4
				s0.2-0.3,0.4-0.3l0,0L107.3,37.7L107.3,37.7z"/>
			<path class="st2" d="M96.3,35.7L96.3,35.7c0.2,0,0.3,0.2,0.3,0.5c-0.1,0.2-0.3,0.3-0.5,0.2c-1.8-0.6-3.6-1.1-5.4-1.8
				c-0.2-0.1-0.3-0.3-0.2-0.5s0.3-0.3,0.5-0.2C92.7,34.6,94.5,35.1,96.3,35.7L96.3,35.7z"/>
			<path class="st2" d="M85.7,31.9c0.2,0.1,0.2,0.2,0.1,0.5c0,0.2-0.2,0.3-0.4,0.2l-5.2-2.2c-0.1-0.1-0.2-0.3-0.1-0.4
				c0.1-0.2,0.3-0.3,0.4-0.2L85.7,31.9L85.7,31.9z"/>
			<path class="st2" d="M75.2,27.7c0.1,0.1,0.2,0.2,0.2,0.3c-0.1,0.1-0.2,0.1-0.3,0.1l-5.3-2c-0.1,0-0.1-0.1-0.1-0.2
				s0.1-0.1,0.2-0.1L75.2,27.7L75.2,27.7z"/>
			<path class="st2" d="M64.4,24.3c0.1,0,0.1,0,0.2,0.2c-0.1,0.1-0.1,0.1-0.2,0.1l-5.5-1.2c-0.1,0-0.1-0.1-0.1-0.1
				c0-0.1,0.1-0.1,0.1-0.1L64.4,24.3L64.4,24.3z"/>
			<path class="st2" d="M53.3,22.6C53.3,22.7,53.3,22.7,53.3,22.6C53.3,22.7,53.3,22.7,53.3,22.6h-2.7H53.3L53.3,22.6z"/>
		</g>
	</g>
	<circle class="st1" cx="18.4" cy="28.2" r="3"/>
</g>
</svg>
